<mxfile host="Electron" modified="2024-06-01T20:27:28.919Z" agent="Mozilla/5.0 (Macintosh; Intel Mac OS X 10_15_7) AppleWebKit/537.36 (KHTML, like Gecko) draw.io/24.4.13 Chrome/124.0.6367.207 Electron/30.0.6 Safari/537.36" etag="Y1gEkmKuHzIqrPSzNRDg" version="24.4.13" type="device">
  <diagram name="Page-1" id="b5b7bab2-c9e2-2cf4-8b2a-24fd1a2a6d21">
    <mxGraphModel dx="2510" dy="913" grid="1" gridSize="10" guides="1" tooltips="1" connect="1" arrows="1" fold="1" page="1" pageScale="1" pageWidth="827" pageHeight="1169" background="none" math="0" shadow="0">
      <root>
        <mxCell id="0" />
        <mxCell id="1" parent="0" />
        <mxCell id="YqiS23aqAcduzxBvquNL-56" value="&lt;i&gt;&amp;lt;&amp;lt;server&amp;gt;&amp;gt;&lt;/i&gt;&lt;div&gt;&lt;b&gt;PyPi&lt;/b&gt;&lt;/div&gt;" style="verticalAlign=top;align=center;spacingTop=8;spacingLeft=2;spacingRight=12;shape=cube;size=10;direction=south;fontStyle=4;html=1;whiteSpace=wrap;fillColor=#fff2cc;strokeColor=#d6b656;" parent="1" vertex="1">
          <mxGeometry x="837" y="270" width="293" height="150" as="geometry" />
        </mxCell>
        <mxCell id="YqiS23aqAcduzxBvquNL-55" value="&lt;i&gt;&amp;lt;&amp;lt;server&amp;gt;&amp;gt;&lt;/i&gt;&lt;div&gt;&lt;b&gt;CondaForge&lt;/b&gt;&lt;/div&gt;" style="verticalAlign=top;align=center;spacingTop=8;spacingLeft=2;spacingRight=12;shape=cube;size=10;direction=south;fontStyle=4;html=1;whiteSpace=wrap;fillColor=#fff2cc;strokeColor=#d6b656;" parent="1" vertex="1">
          <mxGeometry x="850" y="430" width="330" height="150" as="geometry" />
        </mxCell>
        <mxCell id="YqiS23aqAcduzxBvquNL-2" value="&lt;div&gt;&lt;i&gt;&amp;lt;&amp;lt;server&amp;gt;&amp;gt;&lt;/i&gt;&lt;/div&gt;&lt;b&gt;UL GitHub&lt;/b&gt;" style="rounded=0;whiteSpace=wrap;html=1;verticalAlign=top;fillColor=#f5f5f5;fontColor=#333333;strokeColor=#666666;" parent="1" vertex="1">
          <mxGeometry x="470" y="170" width="320" height="710" as="geometry" />
        </mxCell>
        <mxCell id="YqiS23aqAcduzxBvquNL-11" value="&lt;i&gt;&amp;lt;&amp;lt;repository&amp;gt;&amp;gt;&lt;/i&gt;&lt;div&gt;&lt;b&gt;behaverse/data-model&lt;/b&gt;&lt;/div&gt;" style="verticalAlign=top;align=center;spacingTop=8;spacingLeft=2;spacingRight=12;shape=cube;size=10;direction=south;fontStyle=4;html=1;whiteSpace=wrap;fillColor=#fff2cc;strokeColor=#d6b656;" parent="1" vertex="1">
          <mxGeometry x="482.5" y="220" width="285" height="160" as="geometry" />
        </mxCell>
        <mxCell id="YqiS23aqAcduzxBvquNL-1" value="&lt;div&gt;&lt;i&gt;&amp;lt;&amp;lt;server&amp;gt;&amp;gt;&lt;/i&gt;&lt;/div&gt;&lt;b&gt;UL GitLab&lt;/b&gt;" style="rounded=0;whiteSpace=wrap;html=1;verticalAlign=top;fillColor=#f5f5f5;fontColor=#333333;strokeColor=#666666;" parent="1" vertex="1">
          <mxGeometry x="40" y="170" width="330" height="360" as="geometry" />
        </mxCell>
        <mxCell id="YqiS23aqAcduzxBvquNL-3" value="&lt;i&gt;&amp;lt;&amp;lt;repository&amp;gt;&amp;gt;&lt;/i&gt;&lt;div&gt;&lt;b&gt;xcit/behaverse/website&lt;/b&gt;&lt;/div&gt;" style="verticalAlign=top;align=center;spacingTop=8;spacingLeft=2;spacingRight=12;shape=cube;size=10;direction=south;fontStyle=4;html=1;whiteSpace=wrap;fillColor=#fff2cc;strokeColor=#d6b656;" parent="1" vertex="1">
          <mxGeometry x="50" y="220" width="310" height="270" as="geometry" />
        </mxCell>
        <mxCell id="YqiS23aqAcduzxBvquNL-4" value="&lt;i&gt;&amp;lt;&amp;lt;repository&amp;gt;&amp;gt;&lt;/i&gt;&lt;div&gt;&lt;b&gt;behaverse/data-api&lt;/b&gt;&lt;/div&gt;" style="verticalAlign=top;align=center;spacingTop=8;spacingLeft=2;spacingRight=12;shape=cube;size=10;direction=south;fontStyle=4;html=1;whiteSpace=wrap;fillColor=#fff2cc;strokeColor=#d6b656;" parent="1" vertex="1">
          <mxGeometry x="482.5" y="410" width="280" height="160" as="geometry" />
        </mxCell>
        <mxCell id="YqiS23aqAcduzxBvquNL-13" style="edgeStyle=entityRelationEdgeStyle;rounded=0;orthogonalLoop=1;jettySize=auto;html=1;endArrow=none;endFill=0;startArrow=diamondThin;startFill=0;exitX=1;exitY=0.25;exitDx=0;exitDy=0;startSize=12;entryX=0;entryY=0.25;entryDx=0;entryDy=0;strokeWidth=2;" parent="1" source="YqiS23aqAcduzxBvquNL-5" target="YqiS23aqAcduzxBvquNL-9" edge="1">
          <mxGeometry relative="1" as="geometry" />
        </mxCell>
        <mxCell id="YqiS23aqAcduzxBvquNL-65" value="/data-model" style="edgeLabel;html=1;align=center;verticalAlign=middle;resizable=0;points=[];" parent="YqiS23aqAcduzxBvquNL-13" vertex="1" connectable="0">
          <mxGeometry x="-0.0385" y="4" relative="1" as="geometry">
            <mxPoint as="offset" />
          </mxGeometry>
        </mxCell>
        <mxCell id="YqiS23aqAcduzxBvquNL-14" style="edgeStyle=entityRelationEdgeStyle;rounded=0;orthogonalLoop=1;jettySize=auto;html=1;endArrow=none;endFill=0;startArrow=diamondThin;startFill=0;startSize=12;exitX=1;exitY=0.75;exitDx=0;exitDy=0;strokeWidth=2;entryX=0;entryY=0.25;entryDx=0;entryDy=0;" parent="1" source="YqiS23aqAcduzxBvquNL-5" target="YqiS23aqAcduzxBvquNL-7" edge="1">
          <mxGeometry relative="1" as="geometry">
            <Array as="points">
              <mxPoint x="390" y="450" />
              <mxPoint x="310" y="440" />
            </Array>
          </mxGeometry>
        </mxCell>
        <mxCell id="YqiS23aqAcduzxBvquNL-64" value="/api&lt;br&gt;&lt;b&gt;OR&lt;/b&gt; /data" style="edgeLabel;html=1;align=center;verticalAlign=middle;resizable=0;points=[];" parent="YqiS23aqAcduzxBvquNL-14" vertex="1" connectable="0">
          <mxGeometry x="0.0316" relative="1" as="geometry">
            <mxPoint as="offset" />
          </mxGeometry>
        </mxCell>
        <mxCell id="YqiS23aqAcduzxBvquNL-5" value="&lt;p style=&quot;margin:0px;margin-top:6px;text-align:center;&quot;&gt;&lt;i style=&quot;&quot;&gt;&amp;lt;&amp;lt;artifact&amp;gt;&amp;gt;&lt;/i&gt;&lt;/p&gt;&lt;p style=&quot;margin:0px;margin-top:6px;text-align:center;&quot;&gt;&lt;b&gt;Main Website&lt;/b&gt;&lt;/p&gt;&lt;hr size=&quot;1&quot; style=&quot;border-style:solid;&quot;&gt;&lt;p style=&quot;margin:0px;margin-left:8px;&quot;&gt;+ &lt;b&gt;internal_url&lt;/b&gt;: xcit.gitlab.io/behaverse/website&lt;br&gt;&lt;/p&gt;&lt;p style=&quot;margin:0px;margin-left:8px;&quot;&gt;+ &lt;b&gt;public_url&lt;/b&gt;: behaverse.org&lt;/p&gt;&lt;p style=&quot;margin:0px;margin-left:8px;&quot;&gt;+ &lt;b&gt;pages&lt;/b&gt;:&lt;/p&gt;&lt;p style=&quot;margin:0px;margin-left:8px;&quot;&gt;&lt;span style=&quot;white-space: pre;&quot;&gt;&#x9;&lt;/span&gt;- /&lt;br&gt;&lt;/p&gt;&lt;p style=&quot;margin:0px;margin-left:8px;&quot;&gt;&lt;span style=&quot;white-space: pre;&quot;&gt;&#x9;&lt;/span&gt;- /training&lt;br&gt;&lt;/p&gt;&lt;p style=&quot;margin:0px;margin-left:8px;&quot;&gt;&lt;span style=&quot;white-space: pre;&quot;&gt;&#x9;&lt;/span&gt;- /assessment&lt;br&gt;&lt;/p&gt;" style="align=left;overflow=fill;html=1;dropTarget=0;whiteSpace=wrap;fillColor=#f8cecc;strokeColor=#b85450;" parent="1" vertex="1">
          <mxGeometry x="70" y="304.95" width="260" height="150" as="geometry" />
        </mxCell>
        <mxCell id="YqiS23aqAcduzxBvquNL-6" value="" style="shape=component;jettyWidth=8;jettyHeight=4;" parent="YqiS23aqAcduzxBvquNL-5" vertex="1">
          <mxGeometry x="1" width="20" height="20" relative="1" as="geometry">
            <mxPoint x="-24" y="4" as="offset" />
          </mxGeometry>
        </mxCell>
        <mxCell id="YqiS23aqAcduzxBvquNL-7" value="&lt;p style=&quot;margin:0px;margin-top:6px;text-align:center;&quot;&gt;&lt;i&gt;&amp;lt;&amp;lt;artifact&amp;gt;&amp;gt;&lt;/i&gt;&lt;/p&gt;&lt;p style=&quot;margin:0px;margin-top:6px;text-align:center;&quot;&gt;&lt;b&gt;Data API Website&lt;/b&gt;&lt;/p&gt;&lt;hr size=&quot;1&quot; style=&quot;border-style:solid;&quot;&gt;&lt;p style=&quot;margin:0px;margin-left:8px;&quot;&gt;+&amp;nbsp;&lt;b&gt;internal_url&lt;/b&gt;: behaverse.github.io/data-api&lt;br&gt;&lt;/p&gt;&lt;p style=&quot;margin:0px;margin-left:8px;&quot;&gt;+ &lt;b&gt;public_url&lt;/b&gt;: behaverse.org/data&lt;/p&gt;" style="align=left;overflow=fill;html=1;dropTarget=0;whiteSpace=wrap;fillColor=#f8cecc;strokeColor=#b85450;" parent="1" vertex="1">
          <mxGeometry x="500" y="470" width="240" height="90" as="geometry" />
        </mxCell>
        <mxCell id="YqiS23aqAcduzxBvquNL-8" value="" style="shape=component;jettyWidth=8;jettyHeight=4;" parent="YqiS23aqAcduzxBvquNL-7" vertex="1">
          <mxGeometry x="1" width="20" height="20" relative="1" as="geometry">
            <mxPoint x="-24" y="4" as="offset" />
          </mxGeometry>
        </mxCell>
        <mxCell id="YqiS23aqAcduzxBvquNL-9" value="&lt;p style=&quot;margin:0px;margin-top:6px;text-align:center;&quot;&gt;&lt;b&gt;&amp;lt;&amp;lt;artifact&amp;gt;&amp;gt;&lt;/b&gt;&lt;/p&gt;&lt;p style=&quot;margin:0px;margin-top:6px;text-align:center;&quot;&gt;&lt;b&gt;Data Model Website&lt;/b&gt;&lt;/p&gt;&lt;hr size=&quot;1&quot; style=&quot;border-style:solid;&quot;&gt;&lt;p style=&quot;margin:0px;margin-left:8px;&quot;&gt;+&amp;nbsp;&lt;b&gt;internal_url&lt;/b&gt;: behaverse.github.io/data-model&lt;br&gt;&lt;/p&gt;&lt;p style=&quot;margin:0px;margin-left:8px;&quot;&gt;+ &lt;b&gt;public_url&lt;/b&gt;: behaverse.org/data-model&lt;/p&gt;" style="align=left;overflow=fill;html=1;dropTarget=0;whiteSpace=wrap;fillColor=#f8cecc;strokeColor=#b85450;" parent="1" vertex="1">
          <mxGeometry x="500" y="280" width="240" height="90" as="geometry" />
        </mxCell>
        <mxCell id="YqiS23aqAcduzxBvquNL-10" value="" style="shape=component;jettyWidth=8;jettyHeight=4;" parent="YqiS23aqAcduzxBvquNL-9" vertex="1">
          <mxGeometry x="1" width="20" height="20" relative="1" as="geometry">
            <mxPoint x="-24" y="4" as="offset" />
          </mxGeometry>
        </mxCell>
        <mxCell id="YqiS23aqAcduzxBvquNL-12" value="&lt;i&gt;&amp;lt;&amp;lt;repository&amp;gt;&amp;gt;&lt;/i&gt;&lt;div&gt;&lt;b&gt;behaverse/data-registry&lt;/b&gt;&lt;/div&gt;" style="verticalAlign=top;align=center;spacingTop=8;spacingLeft=2;spacingRight=12;shape=cube;size=10;direction=south;fontStyle=4;html=1;whiteSpace=wrap;fillColor=#fff2cc;strokeColor=#d6b656;" parent="1" vertex="1">
          <mxGeometry x="486.25" y="590" width="277.5" height="260" as="geometry" />
        </mxCell>
        <mxCell id="YqiS23aqAcduzxBvquNL-18" style="edgeStyle=orthogonalEdgeStyle;rounded=0;orthogonalLoop=1;jettySize=auto;html=1;endArrow=diamondThin;endFill=0;endSize=12;strokeWidth=2;exitX=0;exitY=0.25;exitDx=0;exitDy=0;" parent="1" source="YqiS23aqAcduzxBvquNL-16" target="YqiS23aqAcduzxBvquNL-5" edge="1">
          <mxGeometry relative="1" as="geometry" />
        </mxCell>
        <mxCell id="YqiS23aqAcduzxBvquNL-63" value="/registry" style="edgeLabel;html=1;align=center;verticalAlign=middle;resizable=0;points=[];" parent="YqiS23aqAcduzxBvquNL-18" vertex="1" connectable="0">
          <mxGeometry x="0.2755" y="2" relative="1" as="geometry">
            <mxPoint as="offset" />
          </mxGeometry>
        </mxCell>
        <mxCell id="YqiS23aqAcduzxBvquNL-16" value="&lt;p style=&quot;margin:0px;margin-top:6px;text-align:center;&quot;&gt;&lt;i&gt;&amp;lt;&amp;lt;artifact&amp;gt;&amp;gt;&lt;/i&gt;&lt;/p&gt;&lt;p style=&quot;margin:0px;margin-top:6px;text-align:center;&quot;&gt;&lt;b&gt;Registry Website&lt;/b&gt;&lt;/p&gt;&lt;hr size=&quot;1&quot; style=&quot;border-style:solid;&quot;&gt;&lt;p style=&quot;margin:0px;margin-left:8px;&quot;&gt;+&amp;nbsp;&lt;b&gt;internal_url&lt;/b&gt;: behaverse.github.io/registry&lt;br&gt;&lt;/p&gt;&lt;p style=&quot;margin:0px;margin-left:8px;&quot;&gt;+ &lt;b&gt;public_url&lt;/b&gt;: behaverse.org/registry&lt;/p&gt;" style="align=left;overflow=fill;html=1;dropTarget=0;whiteSpace=wrap;fillColor=#f8cecc;strokeColor=#b85450;" parent="1" vertex="1">
          <mxGeometry x="500" y="650" width="240" height="90" as="geometry" />
        </mxCell>
        <mxCell id="YqiS23aqAcduzxBvquNL-17" value="" style="shape=component;jettyWidth=8;jettyHeight=4;" parent="YqiS23aqAcduzxBvquNL-16" vertex="1">
          <mxGeometry x="1" width="20" height="20" relative="1" as="geometry">
            <mxPoint x="-24" y="4" as="offset" />
          </mxGeometry>
        </mxCell>
        <mxCell id="YqiS23aqAcduzxBvquNL-22" style="edgeStyle=entityRelationEdgeStyle;rounded=0;orthogonalLoop=1;jettySize=auto;html=1;entryX=0;entryY=0;entryDx=75;entryDy=0;entryPerimeter=0;strokeWidth=2;endArrow=block;endFill=0;startSize=12;endSize=12;" parent="1" source="YqiS23aqAcduzxBvquNL-67" target="YqiS23aqAcduzxBvquNL-4" edge="1">
          <mxGeometry relative="1" as="geometry" />
        </mxCell>
        <mxCell id="YqiS23aqAcduzxBvquNL-23" style="edgeStyle=entityRelationEdgeStyle;rounded=0;orthogonalLoop=1;jettySize=auto;html=1;entryX=0.681;entryY=-0.005;entryDx=0;entryDy=0;entryPerimeter=0;endArrow=block;endFill=0;endSize=12;strokeWidth=2;" parent="1" source="YqiS23aqAcduzxBvquNL-69" target="YqiS23aqAcduzxBvquNL-4" edge="1">
          <mxGeometry relative="1" as="geometry" />
        </mxCell>
        <mxCell id="YqiS23aqAcduzxBvquNL-24" value="&lt;i&gt;&amp;lt;&amp;lt;server&amp;gt;&amp;gt;&lt;/i&gt;&lt;div&gt;&lt;b&gt;UL OneDrive&lt;/b&gt;&lt;/div&gt;" style="verticalAlign=top;align=center;spacingTop=8;spacingLeft=2;spacingRight=12;shape=cube;size=10;direction=south;fontStyle=4;html=1;whiteSpace=wrap;fillColor=#fff2cc;strokeColor=#d6b656;" parent="1" vertex="1">
          <mxGeometry x="840" y="750" width="190" height="120" as="geometry" />
        </mxCell>
        <mxCell id="YqiS23aqAcduzxBvquNL-25" value="&lt;i&gt;&amp;lt;&amp;lt;server&amp;gt;&amp;gt;&lt;/i&gt;&lt;div&gt;&lt;b&gt;ULHPC Aion Cluster&lt;/b&gt;&lt;/div&gt;" style="verticalAlign=top;align=center;spacingTop=8;spacingLeft=2;spacingRight=12;shape=cube;size=10;direction=south;fontStyle=4;html=1;whiteSpace=wrap;fillColor=#fff2cc;strokeColor=#d6b656;" parent="1" vertex="1">
          <mxGeometry x="840" y="590" width="190" height="120" as="geometry" />
        </mxCell>
        <mxCell id="YqiS23aqAcduzxBvquNL-27" style="edgeStyle=entityRelationEdgeStyle;rounded=0;orthogonalLoop=1;jettySize=auto;html=1;entryX=0;entryY=0;entryDx=125;entryDy=0;entryPerimeter=0;strokeWidth=2;endArrow=block;endFill=0;endSize=12;" parent="1" source="YqiS23aqAcduzxBvquNL-25" target="YqiS23aqAcduzxBvquNL-12" edge="1">
          <mxGeometry relative="1" as="geometry" />
        </mxCell>
        <mxCell id="YqiS23aqAcduzxBvquNL-66" style="edgeStyle=orthogonalEdgeStyle;rounded=0;orthogonalLoop=1;jettySize=auto;html=1;strokeWidth=2;endArrow=blockThin;endFill=1;endSize=9;" parent="1" source="YqiS23aqAcduzxBvquNL-32" target="YqiS23aqAcduzxBvquNL-24" edge="1">
          <mxGeometry relative="1" as="geometry" />
        </mxCell>
        <mxCell id="YqiS23aqAcduzxBvquNL-32" value="&lt;i&gt;&amp;lt;&amp;lt;artifact&amp;gt;&amp;gt;&lt;br&gt;&lt;/i&gt;&lt;b&gt;datasets/dataset.yml&lt;/b&gt;" style="html=1;dropTarget=0;whiteSpace=wrap;fillColor=#f8cecc;strokeColor=#b85450;" parent="1" vertex="1">
          <mxGeometry x="532.5" y="760" width="180" height="60" as="geometry" />
        </mxCell>
        <mxCell id="YqiS23aqAcduzxBvquNL-33" value="" style="shape=module;jettyWidth=8;jettyHeight=4;" parent="YqiS23aqAcduzxBvquNL-32" vertex="1">
          <mxGeometry x="1" width="20" height="20" relative="1" as="geometry">
            <mxPoint x="-27" y="7" as="offset" />
          </mxGeometry>
        </mxCell>
        <mxCell id="YqiS23aqAcduzxBvquNL-38" value="&amp;lt;&amp;lt;artifact&amp;gt;&amp;gt;&lt;br&gt;&lt;b&gt;DVC Remote&lt;/b&gt;" style="html=1;dropTarget=0;whiteSpace=wrap;fillColor=#f8cecc;strokeColor=#b85450;" parent="1" vertex="1">
          <mxGeometry x="850" y="650" width="160" height="50" as="geometry" />
        </mxCell>
        <mxCell id="YqiS23aqAcduzxBvquNL-39" value="" style="shape=module;jettyWidth=8;jettyHeight=4;" parent="YqiS23aqAcduzxBvquNL-38" vertex="1">
          <mxGeometry x="1" width="20" height="20" relative="1" as="geometry">
            <mxPoint x="-27" y="7" as="offset" />
          </mxGeometry>
        </mxCell>
        <mxCell id="YqiS23aqAcduzxBvquNL-40" value="&amp;lt;&amp;lt;artifact&amp;gt;&amp;gt;&lt;br&gt;&lt;b&gt;Public archived datasets&lt;/b&gt;" style="html=1;dropTarget=0;whiteSpace=wrap;fillColor=#f8cecc;strokeColor=#b85450;" parent="1" vertex="1">
          <mxGeometry x="850" y="800" width="160" height="60" as="geometry" />
        </mxCell>
        <mxCell id="YqiS23aqAcduzxBvquNL-41" value="" style="shape=module;jettyWidth=8;jettyHeight=4;" parent="YqiS23aqAcduzxBvquNL-40" vertex="1">
          <mxGeometry x="1" width="20" height="20" relative="1" as="geometry">
            <mxPoint x="-27" y="7" as="offset" />
          </mxGeometry>
        </mxCell>
        <mxCell id="YqiS23aqAcduzxBvquNL-42" value="" style="sketch=0;pointerEvents=1;shadow=0;dashed=0;html=1;fillColor=#e51400;labelPosition=center;verticalLabelPosition=bottom;verticalAlign=top;outlineConnect=0;align=center;shape=mxgraph.office.security.lock_protected;strokeColor=none;aspect=fixed;fontColor=#ffffff;" parent="1" vertex="1">
          <mxGeometry x="314.25" y="240" width="15.748" height="20.81" as="geometry" />
        </mxCell>
        <mxCell id="YqiS23aqAcduzxBvquNL-43" value="" style="sketch=0;pointerEvents=1;shadow=0;dashed=0;html=1;fillColor=#e51400;labelPosition=center;verticalLabelPosition=bottom;verticalAlign=top;outlineConnect=0;align=center;shape=mxgraph.office.security.lock_protected;strokeColor=none;aspect=fixed;fontColor=#ffffff;" parent="1" vertex="1">
          <mxGeometry x="994.25" y="610" width="15.748" height="20.81" as="geometry" />
        </mxCell>
        <mxCell id="YqiS23aqAcduzxBvquNL-48" value="" style="sketch=0;pointerEvents=1;shadow=0;dashed=0;html=1;strokeColor=none;fillColor=#60a917;labelPosition=center;verticalLabelPosition=bottom;verticalAlign=top;outlineConnect=0;align=center;shape=mxgraph.office.security.lock_unprotected;aspect=fixed;fontColor=#ffffff;" parent="1" vertex="1">
          <mxGeometry x="720" y="430" width="17.3228" height="24.95" as="geometry" />
        </mxCell>
        <mxCell id="YqiS23aqAcduzxBvquNL-50" value="" style="sketch=0;pointerEvents=1;shadow=0;dashed=0;html=1;strokeColor=none;fillColor=#60a917;labelPosition=center;verticalLabelPosition=bottom;verticalAlign=top;outlineConnect=0;align=center;shape=mxgraph.office.security.lock_unprotected;aspect=fixed;fontColor=#ffffff;" parent="1" vertex="1">
          <mxGeometry x="720" y="237.93" width="17.3228" height="24.95" as="geometry" />
        </mxCell>
        <mxCell id="YqiS23aqAcduzxBvquNL-51" value="" style="sketch=0;pointerEvents=1;shadow=0;dashed=0;html=1;strokeColor=none;fillColor=#60a917;labelPosition=center;verticalLabelPosition=bottom;verticalAlign=top;outlineConnect=0;align=center;shape=mxgraph.office.security.lock_unprotected;aspect=fixed;fontColor=#ffffff;" parent="1" vertex="1">
          <mxGeometry x="722.68" y="610" width="17.3228" height="24.95" as="geometry" />
        </mxCell>
        <mxCell id="YqiS23aqAcduzxBvquNL-52" value="" style="sketch=0;pointerEvents=1;shadow=0;dashed=0;html=1;strokeColor=none;fillColor=#60a917;labelPosition=center;verticalLabelPosition=bottom;verticalAlign=top;outlineConnect=0;align=center;shape=mxgraph.office.security.lock_unprotected;aspect=fixed;fontColor=#ffffff;" parent="1" vertex="1">
          <mxGeometry x="1090" y="287.53" width="17.3228" height="24.95" as="geometry" />
        </mxCell>
        <mxCell id="YqiS23aqAcduzxBvquNL-53" value="" style="sketch=0;pointerEvents=1;shadow=0;dashed=0;html=1;strokeColor=none;fillColor=#60a917;labelPosition=center;verticalLabelPosition=bottom;verticalAlign=top;outlineConnect=0;align=center;shape=mxgraph.office.security.lock_unprotected;aspect=fixed;fontColor=#ffffff;" parent="1" vertex="1">
          <mxGeometry x="1139.9999999999998" y="445.04999999999995" width="17.3228" height="24.95" as="geometry" />
        </mxCell>
        <mxCell id="YqiS23aqAcduzxBvquNL-54" value="" style="sketch=0;pointerEvents=1;shadow=0;dashed=0;html=1;strokeColor=none;fillColor=#60a917;labelPosition=center;verticalLabelPosition=bottom;verticalAlign=top;outlineConnect=0;align=center;shape=mxgraph.office.security.lock_unprotected;aspect=fixed;fontColor=#ffffff;" parent="1" vertex="1">
          <mxGeometry x="992.68" y="770" width="17.3228" height="24.95" as="geometry" />
        </mxCell>
        <mxCell id="YqiS23aqAcduzxBvquNL-59" style="edgeStyle=orthogonalEdgeStyle;rounded=0;orthogonalLoop=1;jettySize=auto;html=1;endArrow=blockThin;endFill=1;strokeWidth=2;endSize=9;" parent="1" source="YqiS23aqAcduzxBvquNL-57" target="YqiS23aqAcduzxBvquNL-58" edge="1">
          <mxGeometry relative="1" as="geometry" />
        </mxCell>
        <mxCell id="YqiS23aqAcduzxBvquNL-57" value="&lt;i&gt;&amp;lt;&amp;lt;server&amp;gt;&amp;gt;&lt;/i&gt;&lt;div&gt;&lt;b&gt;Domain R&lt;/b&gt;&lt;span style=&quot;background-color: initial;&quot;&gt;&lt;b&gt;egistrar&lt;/b&gt;&lt;/span&gt;&lt;/div&gt;" style="verticalAlign=middle;align=center;spacingTop=8;spacingLeft=2;spacingRight=12;shape=cube;size=10;direction=south;fontStyle=4;html=1;whiteSpace=wrap;fillColor=#fff2cc;strokeColor=#d6b656;" parent="1" vertex="1">
          <mxGeometry x="-210" y="200.81" width="210" height="60" as="geometry" />
        </mxCell>
        <mxCell id="YqiS23aqAcduzxBvquNL-60" style="edgeStyle=entityRelationEdgeStyle;rounded=0;orthogonalLoop=1;jettySize=auto;html=1;strokeWidth=2;endArrow=blockThin;endFill=1;endSize=9;" parent="1" source="YqiS23aqAcduzxBvquNL-58" target="YqiS23aqAcduzxBvquNL-5" edge="1">
          <mxGeometry relative="1" as="geometry" />
        </mxCell>
        <mxCell id="YqiS23aqAcduzxBvquNL-58" value="&lt;i&gt;&amp;lt;&amp;lt;server&amp;gt;&amp;gt;&lt;/i&gt;&lt;div&gt;&lt;b&gt;CloudFlare&lt;/b&gt;&lt;/div&gt;" style="verticalAlign=top;align=center;spacingTop=8;spacingLeft=2;spacingRight=12;shape=cube;size=10;direction=south;fontStyle=4;html=1;whiteSpace=wrap;fillColor=#fff2cc;strokeColor=#d6b656;" parent="1" vertex="1">
          <mxGeometry x="-210" y="307.5" width="210" height="112.5" as="geometry" />
        </mxCell>
        <mxCell id="YqiS23aqAcduzxBvquNL-61" value="" style="sketch=0;pointerEvents=1;shadow=0;dashed=0;html=1;fillColor=#e51400;labelPosition=center;verticalLabelPosition=bottom;verticalAlign=top;outlineConnect=0;align=center;shape=mxgraph.office.security.lock_protected;strokeColor=none;aspect=fixed;fontColor=#ffffff;" parent="1" vertex="1">
          <mxGeometry x="-35.75" y="217.12" width="15.748" height="20.81" as="geometry" />
        </mxCell>
        <mxCell id="YqiS23aqAcduzxBvquNL-62" value="" style="sketch=0;pointerEvents=1;shadow=0;dashed=0;html=1;fillColor=#e51400;labelPosition=center;verticalLabelPosition=bottom;verticalAlign=top;outlineConnect=0;align=center;shape=mxgraph.office.security.lock_protected;strokeColor=none;aspect=fixed;fontColor=#ffffff;" parent="1" vertex="1">
          <mxGeometry x="-35.75" y="330" width="15.748" height="20.81" as="geometry" />
        </mxCell>
        <mxCell id="YqiS23aqAcduzxBvquNL-67" value="&lt;p style=&quot;margin:0px;margin-top:6px;text-align:center;&quot;&gt;&amp;lt;&amp;lt;artifact&amp;gt;&amp;gt;&lt;/p&gt;&lt;p style=&quot;margin:0px;margin-top:6px;text-align:center;&quot;&gt;&lt;b&gt;Behaverse Python package&lt;/b&gt;&lt;/p&gt;&lt;hr size=&quot;1&quot; style=&quot;border-style:solid;&quot;&gt;&lt;p style=&quot;margin:0px;margin-left:8px;&quot;&gt;+ &lt;b&gt;package_name&lt;/b&gt;: behaverse&lt;br&gt;&lt;/p&gt;&lt;p style=&quot;margin:0px;margin-left:8px;&quot;&gt;+ &lt;b&gt;install_cmd: &quot;pip install behaverse[data]&quot;&lt;/b&gt;&lt;/p&gt;" style="align=left;overflow=fill;html=1;dropTarget=0;whiteSpace=wrap;fillColor=#f8cecc;strokeColor=#b85450;" parent="1" vertex="1">
          <mxGeometry x="850" y="320" width="260" height="90" as="geometry" />
        </mxCell>
        <mxCell id="YqiS23aqAcduzxBvquNL-68" value="" style="shape=component;jettyWidth=8;jettyHeight=4;" parent="YqiS23aqAcduzxBvquNL-67" vertex="1">
          <mxGeometry x="1" width="20" height="20" relative="1" as="geometry">
            <mxPoint x="-24" y="4" as="offset" />
          </mxGeometry>
        </mxCell>
        <mxCell id="YqiS23aqAcduzxBvquNL-69" value="&lt;p style=&quot;margin:0px;margin-top:6px;text-align:center;&quot;&gt;&amp;lt;&amp;lt;artifact&amp;gt;&amp;gt;&lt;/p&gt;&lt;p style=&quot;margin:0px;margin-top:6px;text-align:center;&quot;&gt;&lt;b&gt;Behaverse Python package&lt;/b&gt;&lt;/p&gt;&lt;hr size=&quot;1&quot; style=&quot;border-style:solid;&quot;&gt;&lt;p style=&quot;margin:0px;margin-left:8px;&quot;&gt;+ &lt;b&gt;package_name&lt;/b&gt;: behaverse-data&lt;br&gt;&lt;/p&gt;&lt;p style=&quot;margin:0px;margin-left:8px;&quot;&gt;+ &lt;b&gt;install_cmd: &quot;mamba install behaverse-data&quot;&lt;/b&gt;&lt;/p&gt;" style="align=left;overflow=fill;html=1;dropTarget=0;whiteSpace=wrap;fillColor=#f8cecc;strokeColor=#b85450;" parent="1" vertex="1">
          <mxGeometry x="860" y="480" width="297.32" height="90" as="geometry" />
        </mxCell>
        <mxCell id="YqiS23aqAcduzxBvquNL-70" value="" style="shape=component;jettyWidth=8;jettyHeight=4;" parent="YqiS23aqAcduzxBvquNL-69" vertex="1">
          <mxGeometry x="1" width="20" height="20" relative="1" as="geometry">
            <mxPoint x="-24" y="4" as="offset" />
          </mxGeometry>
        </mxCell>
        <mxCell id="Qzh7GuK2_fVoTPH18z-6-1" value="" style="sketch=0;pointerEvents=1;shadow=0;dashed=0;html=1;strokeColor=none;fillColor=#60a917;labelPosition=center;verticalLabelPosition=bottom;verticalAlign=top;outlineConnect=0;align=center;shape=mxgraph.office.security.lock_unprotected;aspect=fixed;fontColor=#ffffff;" vertex="1" parent="1">
          <mxGeometry x="280" y="307.5" width="17.3228" height="24.95" as="geometry" />
        </mxCell>
        <mxCell id="Qzh7GuK2_fVoTPH18z-6-6" style="edgeStyle=orthogonalEdgeStyle;rounded=0;orthogonalLoop=1;jettySize=auto;html=1;dashed=1;endArrow=open;endFill=0;" edge="1" parent="1" source="Qzh7GuK2_fVoTPH18z-6-5" target="YqiS23aqAcduzxBvquNL-55">
          <mxGeometry relative="1" as="geometry" />
        </mxCell>
        <mxCell id="Qzh7GuK2_fVoTPH18z-6-5" value="Do we need to publish on conda-forge?" style="shape=note;strokeWidth=1;fontSize=14;size=20;whiteSpace=wrap;html=1;fillColor=#f5f5f5;fontColor=#333333;strokeColor=#666666;" vertex="1" parent="1">
          <mxGeometry x="1241" y="399.95" width="150" height="85.05" as="geometry" />
        </mxCell>
        <mxCell id="Qzh7GuK2_fVoTPH18z-6-8" value="&lt;i&gt;&amp;lt;&amp;lt;artifact&amp;gt;&amp;gt;&lt;br&gt;&lt;/i&gt;&lt;b&gt;DNS Records&lt;/b&gt;" style="html=1;dropTarget=0;whiteSpace=wrap;fillColor=#f8cecc;strokeColor=#b85450;" vertex="1" parent="1">
          <mxGeometry x="-200" y="370" width="180" height="40" as="geometry" />
        </mxCell>
        <mxCell id="Qzh7GuK2_fVoTPH18z-6-9" value="" style="shape=module;jettyWidth=8;jettyHeight=4;" vertex="1" parent="Qzh7GuK2_fVoTPH18z-6-8">
          <mxGeometry x="1" width="20" height="20" relative="1" as="geometry">
            <mxPoint x="-27" y="7" as="offset" />
          </mxGeometry>
        </mxCell>
        <mxCell id="Qzh7GuK2_fVoTPH18z-6-10" value="" style="sketch=0;pointerEvents=1;shadow=0;dashed=0;html=1;strokeColor=none;fillColor=#60a917;labelPosition=center;verticalLabelPosition=bottom;verticalAlign=top;outlineConnect=0;align=center;shape=mxgraph.office.security.lock_unprotected;aspect=fixed;fontColor=#ffffff;" vertex="1" parent="1">
          <mxGeometry x="-189" y="377" width="17.3228" height="24.95" as="geometry" />
        </mxCell>
      </root>
    </mxGraphModel>
  </diagram>
</mxfile>
